<?xml version="1.0" standalone="no"?>
<!DOCTYPE svg PUBLIC "-//W3C//DTD SVG 20010904//EN"
 "http://www.w3.org/TR/2001/REC-SVG-20010904/DTD/svg10.dtd">
<svg version="1.0" xmlns="http://www.w3.org/2000/svg"
 width="1729.000000pt" height="643.000000pt" viewBox="0 0 1729.000000 643.000000"
 preserveAspectRatio="xMidYMid meet">

<g transform="translate(0.000000,643.000000) scale(0.100000,-0.100000)"
fill="#000000" stroke="none">
<path d="M8807 6240 c-36 -885 -36 -4587 0 -5885 l8 -280 6 195 c38 1067 38
5373 0 6030 l-7 125 -7 -185z"/>
<path d="M6917 6050 c-37 -1427 -37 -3992 0 -5460 l8 -315 6 165 c41 996 41
4652 0 5735 l-6 180 -8 -305z"/>
<path d="M9837 6015 c-37 -1182 -37 -4138 0 -5400 l8 -270 7 183 c37 1003 37
4600 -1 5562 l-6 175 -8 -250z"/>
<path d="M10177 5780 c-35 -1432 -35 -3442 -1 -4920 5 -179 11 -296 15 -270 3
25 13 326 20 670 25 1195 12 4524 -20 4770 -4 36 -10 -53 -14 -250z"/>
<path d="M8637 5865 c-40 -969 -39 -4261 2 -5145 l6 -145 8 275 c37 1300 36
3777 -1 4970 l-7 225 -8 -180z"/>
<path d="M8977 5660 c-36 -1284 -36 -3417 0 -4685 7 -253 8 -262 14 -150 42
736 42 4162 0 4978 -6 128 -7 123 -14 -143z"/>
<path d="M8287 5598 c-20 -782 -29 -1851 -24 -2773 6 -919 24 -2043 33 -2054
2 -2 6 -2 8 0 2 2 10 263 17 579 27 1123 11 4469 -20 4503 -4 4 -11 -111 -14
-255z"/>
<path d="M6747 5630 c-37 -981 -36 -3872 2 -4675 l7 -150 7 210 c37 1008 36
3702 -1 4641 l-8 179 -7 -205z"/>
<path d="M7087 5540 c-36 -1240 -36 -3176 0 -4445 10 -367 18 -271 34 425 25
1071 12 3837 -20 4205 -5 63 -8 23 -14 -185z"/>
<path d="M7777 5595 c-37 -954 -36 -3814 2 -4610 l7 -150 7 200 c37 963 36
3773 -2 4605 l-7 155 -7 -200z"/>
<path d="M9667 5590 c-40 -934 -39 -3802 2 -4593 l6 -132 8 240 c37 1143 36
3401 -1 4462 l-7 198 -8 -175z"/>
<path d="M6057 5475 c-36 -1182 -36 -3111 0 -4315 10 -345 17 -250 34 431 24
1029 12 3688 -20 4054 -5 64 -8 31 -14 -170z"/>
<path d="M5887 5285 c-36 -987 -36 -2931 0 -3945 l8 -215 6 125 c40 740 40
3382 0 4120 l-6 125 -8 -210z"/>
<path d="M6226 5184 c-34 -1153 -34 -2584 0 -3738 4 -131 10 -232 14 -225 18
33 35 1029 35 2084 -1 1050 -17 2051 -35 2099 -4 11 -10 -88 -14 -220z"/>
<path d="M10007 5180 c-36 -1013 -36 -2695 0 -3725 7 -201 8 -212 14 -126 42
574 42 3402 0 3974 -6 83 -7 72 -14 -123z"/>
<path d="M9147 5140 c-36 -1075 -36 -2570 0 -3650 19 -598 47 476 47 1820 0
1342 -28 2422 -47 1830z"/>
<path d="M2457 5220 c-37 -478 -36 -3477 2 -3845 9 -87 18 175 31 900 16 863
8 2137 -19 2845 -7 190 -7 192 -14 100z"/>
<path d="M14828 5115 c-4 -104 -12 -548 -19 -985 -10 -652 -10 -946 1 -1635
15 -966 22 -1182 32 -1115 29 177 41 2469 18 3360 -14 551 -23 660 -32 375z"/>
<path d="M4517 5160 c-37 -561 -35 -3255 2 -3725 6 -80 7 -66 14 135 34 1010
33 2639 -2 3525 l-7 180 -7 -115z"/>
<path d="M10697 5095 c-39 -732 -38 -2982 2 -3594 l7 -106 7 185 c37 881 36
2706 -1 3505 l-7 150 -8 -140z"/>
<path d="M10867 5050 c-37 -831 -36 -2617 0 -3475 l8 -180 6 115 c39 643 39
2958 0 3600 l-7 115 -7 -175z"/>
<path d="M2627 4875 c-36 -668 -35 -2627 2 -3160 7 -100 7 -100 14 90 36 878
35 2254 -2 3055 l-7 155 -7 -140z"/>
<path d="M10357 4970 c-42 -160 -40 -3240 3 -3319 16 -29 39 933 40 1639 0
725 -26 1744 -43 1680z"/>
<path d="M14657 4805 c-16 -389 -26 -1005 -26 -1490 0 -485 10 -1101 26 -1490
6 -167 8 -181 14 -115 38 400 38 2807 0 3210 -6 66 -8 51 -14 -115z"/>
<path d="M4687 4830 c-36 -690 -35 -2460 2 -3070 l7 -115 7 180 c36 849 35
2262 -1 3005 l-8 145 -7 -145z"/>
<path d="M7437 4915 c-30 -220 -43 -2117 -18 -2810 16 -450 25 -517 34 -270
36 880 35 2253 -1 2985 -6 117 -9 135 -15 95z"/>
<path d="M15007 4920 c-39 -242 -39 -2968 0 -3210 11 -67 18 116 33 913 11
573 11 801 0 1375 -16 806 -22 988 -33 922z"/>
<path d="M2276 4748 c-28 -782 -30 -1798 -5 -2668 19 -640 30 -510 50 582 9
502 9 794 0 1295 -14 738 -21 973 -31 973 -4 0 -10 -82 -14 -182z"/>
<path d="M1427 4855 c-38 -366 -37 -2845 2 -3110 9 -62 18 153 31 745 16 699
8 1722 -18 2280 -7 144 -8 150 -15 85z"/>
<path d="M7947 4765 c-36 -767 -36 -2134 0 -2900 7 -154 8 -157 14 -80 42 484
42 2534 0 3055 -7 84 -7 84 -14 -75z"/>
<path d="M15857 4760 c-23 -632 -30 -1465 -17 -2105 21 -1070 31 -1160 51
-495 24 734 9 2655 -21 2735 -4 11 -10 -50 -13 -135z"/>
<path d="M4348 4880 c-29 -102 -42 -2006 -19 -2720 20 -663 30 -575 51 478 11
552 11 775 0 1335 -14 740 -22 945 -32 907z"/>
<path d="M9329 4885 c-4 -5 -13 -170 -20 -365 -26 -701 -11 -2720 21 -2778 15
-29 39 903 40 1553 0 647 -25 1615 -41 1590z"/>
<path d="M5717 4765 c-38 -619 -37 -2403 2 -2925 l7 -95 7 140 c37 680 36
2267 -2 2885 l-7 115 -7 -120z"/>
<path d="M11037 4650 c-36 -791 -36 -1902 0 -2675 6 -135 8 -151 14 -100 42
362 42 2472 0 2874 -6 58 -8 45 -14 -99z"/>
<path d="M4857 4625 c-36 -746 -36 -1876 0 -2630 l7 -160 7 110 c38 585 38
2151 0 2730 l-7 110 -7 -160z"/>
<path d="M12067 4610 c-36 -740 -36 -1841 0 -2590 10 -210 17 -149 34 270 24
627 12 2180 -20 2423 -6 41 -8 21 -14 -103z"/>
<path d="M11206 4584 c-17 -398 -26 -817 -26 -1269 0 -620 24 -1454 40 -1409
18 48 34 713 34 1404 0 691 -16 1366 -34 1414 -4 11 -10 -52 -14 -140z"/>
<path d="M11387 4710 c-42 -162 -40 -2689 3 -2804 16 -43 39 786 40 1389 0
628 -26 1480 -43 1415z"/>
<path d="M14317 4620 c-40 -570 -39 -2204 2 -2632 l7 -73 7 130 c37 641 36
1951 -1 2564 l-8 116 -7 -105z"/>
<path d="M7607 4625 c-41 -505 -40 -2249 2 -2644 6 -61 7 -56 14 74 37 682 36
1938 -2 2545 l-7 115 -7 -90z"/>
<path d="M8467 4665 c-31 -222 -43 -1776 -18 -2365 16 -392 25 -450 35 -240
35 760 34 1899 -3 2531 -6 106 -8 117 -14 74z"/>
<path d="M13627 4570 c-36 -700 -36 -1804 0 -2510 6 -127 8 -138 14 -85 42
363 42 2272 0 2675 -6 59 -7 51 -14 -80z"/>
<path d="M16547 4560 c-36 -729 -36 -1759 0 -2490 l7 -155 7 90 c38 477 38
2111 0 2615 l-7 95 -7 -155z"/>
<path d="M3657 4575 c-36 -532 -35 -2085 2 -2550 l7 -90 7 155 c36 727 35
1886 -1 2476 l-8 119 -7 -110z"/>
<path d="M13796 4530 c-34 -756 -34 -1663 0 -2430 4 -85 10 -145 14 -134 18
48 34 690 34 1344 0 650 -16 1283 -34 1349 -4 15 -10 -36 -14 -129z"/>
<path d="M1597 4570 c-37 -513 -35 -2120 2 -2545 7 -79 7 -77 14 75 35 713 35
1837 -1 2450 l-8 125 -7 -105z"/>
<path d="M2967 4520 c-35 -715 -35 -1715 0 -2415 7 -141 8 -146 14 -80 38 365
38 2181 0 2575 -6 72 -7 68 -14 -80z"/>
<path d="M6408 4645 c-43 -189 -41 -2517 2 -2674 15 -58 39 732 40 1322 0 622
-25 1429 -42 1352z"/>
<path d="M3487 4590 c-37 -376 -35 -2292 2 -2580 6 -45 8 -28 14 101 34 716
33 1814 -2 2424 l-7 130 -7 -75z"/>
<path d="M15687 4515 c-34 -687 -34 -1709 0 -2400 10 -206 19 -136 32 260 21
598 9 2024 -18 2235 -6 46 -8 31 -14 -95z"/>
<path d="M1767 4415 c-36 -624 -36 -1691 1 -2225 l8 -105 7 130 c36 615 36
1652 -1 2220 l-8 110 -7 -130z"/>
<path d="M9497 4480 c-31 -245 -42 -1515 -18 -2035 16 -344 25 -400 35 -220
35 652 34 1641 -2 2200 -7 103 -8 107 -15 55z"/>
<path d="M15517 4400 c-36 -636 -36 -1531 0 -2170 l7 -135 7 80 c38 432 38
1850 0 2280 l-7 80 -7 -135z"/>
<path d="M13457 4420 c-37 -517 -37 -1688 0 -2210 l7 -105 7 70 c39 376 39
1865 0 2275 l-7 75 -7 -105z"/>
<path d="M3827 4385 c-36 -612 -36 -1526 0 -2140 l7 -130 7 90 c38 470 38
1746 0 2220 l-7 90 -7 -130z"/>
<path d="M12236 4359 c-34 -668 -34 -1452 0 -2092 4 -70 10 -124 14 -120 5 4
14 132 21 283 26 529 11 1990 -21 2049 -4 7 -10 -47 -14 -120z"/>
<path d="M16377 4370 c-36 -546 -36 -1564 0 -2110 l7 -115 8 105 c37 533 37
1596 -1 2132 l-7 103 -7 -115z"/>
<path d="M6577 4395 c-41 -405 -40 -1855 2 -2176 6 -49 8 -42 14 66 37 584 36
1584 -2 2085 l-7 95 -7 -70z"/>
<path d="M15347 4355 c-37 -530 -36 -1668 2 -2105 l7 -85 7 125 c36 593 35
1546 -2 2075 l-7 100 -7 -110z"/>
<path d="M11557 4390 c-31 -286 -42 -1407 -18 -1880 17 -327 25 -376 34 -215
36 603 36 1572 -2 2065 l-7 95 -7 -65z"/>
<path d="M1937 4320 c-35 -593 -35 -1399 0 -2005 7 -125 7 -128 14 -65 38 335
38 1756 0 2125 l-7 70 -7 -125z"/>
<path d="M14147 4350 c-42 -326 -40 -1847 2 -2085 6 -32 9 -16 14 75 36 577
36 1474 -1 1967 -8 97 -8 97 -15 43z"/>
<path d="M3136 4237 c-14 -251 -25 -666 -25 -927 0 -405 25 -1063 39 -1024 30
80 44 1286 20 1768 -15 311 -24 359 -34 183z"/>
<path d="M5547 4300 c-41 -326 -40 -1710 2 -1987 6 -43 8 -36 14 62 37 548 36
1428 -1 1890 l-8 90 -7 -55z"/>
<path d="M5027 4225 c-35 -557 -35 -1255 0 -1820 9 -160 18 -110 32 195 21
449 10 1505 -18 1695 -6 44 -8 36 -14 -70z"/>
<path d="M8116 4230 c-35 -569 -35 -1285 0 -1835 19 -296 48 256 48 915 0 662
-29 1225 -48 920z"/>
<path d="M13287 4245 c-40 -402 -39 -1563 2 -1875 7 -54 7 -53 14 45 37 493
36 1431 -2 1825 l-7 75 -7 -70z"/>
<path d="M12417 4265 c-31 -137 -43 -1258 -18 -1675 7 -124 17 -231 21 -239
16 -29 39 531 40 952 0 448 -26 1036 -43 962z"/>
<path d="M3997 4175 c-35 -527 -35 -1199 0 -1720 5 -89 8 -102 14 -70 38 213
38 1594 0 1850 -6 45 -8 40 -14 -60z"/>
<path d="M13979 4235 c-4 -5 -13 -104 -20 -220 -26 -410 -11 -1584 21 -1618
16 -17 39 514 40 901 0 398 -25 963 -41 937z"/>
<path d="M3318 4210 c-29 -66 -42 -1160 -19 -1560 21 -366 31 -313 51 283 11
311 11 443 0 755 -14 414 -22 545 -32 522z"/>
<path d="M7257 4091 c-21 -292 -29 -611 -24 -941 5 -321 23 -687 33 -699 9
-10 13 15 25 199 27 382 12 1489 -20 1523 -5 4 -11 -33 -14 -82z"/>
<path d="M11727 4115 c-40 -391 -39 -1311 2 -1615 l7 -55 7 80 c37 413 36
1229 -1 1590 l-8 70 -7 -70z"/>
<path d="M13117 4115 c-42 -188 -40 -1458 2 -1614 16 -58 40 415 41 796 0 411
-25 897 -43 818z"/>
<path d="M4167 4045 c-23 -318 -30 -739 -18 -1063 15 -378 23 -487 33 -457 16
47 31 428 31 785 0 505 -29 967 -46 735z"/>
<path d="M15177 4070 c-37 -281 -35 -1322 2 -1535 11 -65 32 260 38 615 5 291
-7 713 -26 905 l-7 70 -7 -55z"/>
<path d="M16887 4043 c-23 -308 -30 -741 -17 -1061 14 -369 22 -482 31 -467
16 24 33 441 33 800 0 374 -17 781 -34 798 -4 5 -10 -27 -13 -70z"/>
<path d="M2106 4010 c-26 -377 -32 -767 -16 -1109 13 -288 22 -388 30 -365 30
79 43 971 20 1332 -15 245 -24 281 -34 142z"/>
<path d="M10527 4055 c-31 -181 -42 -961 -18 -1288 17 -225 25 -262 35 -147
35 439 34 1057 -3 1405 -7 67 -7 68 -14 30z"/>
<path d="M16207 3995 c-37 -260 -35 -1199 2 -1375 6 -30 8 -22 15 50 34 412
33 974 -3 1305 l-7 70 -7 -50z"/>
<path d="M5197 3949 c-24 -295 -30 -635 -18 -923 21 -472 30 -513 52 -221 23
314 9 1148 -21 1204 -4 7 -10 -20 -13 -60z"/>
<path d="M11897 3905 c-37 -310 -37 -866 0 -1180 l7 -60 7 41 c41 230 41 987
0 1217 l-7 42 -7 -60z"/>
<path d="M17067 3895 c-40 -175 -38 -1060 3 -1169 10 -29 29 207 36 454 6 199
-6 529 -25 685 -6 52 -8 56 -14 30z"/>
<path d="M12587 3880 c-41 -209 -40 -981 2 -1137 7 -24 8 -21 14 27 23 195 29
368 23 650 -7 313 -25 529 -39 460z"/>
<path d="M12919 3795 c-19 -166 -19 -794 0 -960 12 -99 16 -114 22 -85 42 192
42 933 0 1130 -6 29 -10 13 -22 -85z"/>
<path d="M12751 3725 c-6 -49 -14 -109 -17 -132 -9 -75 -5 -505 5 -603 14
-120 22 -172 27 -167 2 2 11 62 19 133 25 216 17 676 -14 824 -7 31 -9 24 -20
-55z"/>
<path d="M2791 3715 c-28 -201 -24 -679 8 -860 7 -37 8 -34 20 50 29 202 25
678 -8 860 -7 37 -8 34 -20 -50z"/>
<path d="M14479 3700 c-19 -144 -19 -615 1 -770 l14 -115 13 75 c20 112 28
560 14 716 -20 206 -25 218 -42 94z"/>
<path d="M16716 3703 c-30 -234 -32 -533 -5 -737 14 -106 22 -95 39 50 21 192
6 702 -22 730 -3 2 -8 -17 -12 -43z"/>
<path d="M5378 3735 c-31 -50 -44 -551 -19 -742 20 -156 29 -140 52 92 19 191
-6 692 -33 650z"/>
<path d="M16038 3735 c-14 -24 -31 -246 -31 -420 0 -183 18 -411 33 -420 11
-7 29 149 36 315 8 184 -18 556 -38 525z"/>
<path d="M1246 3683 c-17 -125 -28 -351 -22 -468 7 -154 26 -325 36 -325 9 0
28 167 36 320 8 163 -17 520 -36 520 -4 0 -10 -21 -14 -47z"/>
<path d="M17230 3535 c-18 -59 -25 -298 -11 -381 17 -98 26 -108 41 -43 27
122 22 359 -9 443 -8 19 -10 17 -21 -19z"/>
</g>
</svg>
